# xmcd
#
# Track frame offsets: 
#        150
#        14595
#        26202
#        40625
#        52630
#        66835
#        76595
#        88670
#        102272
#        114685
#        126845
#        136550
#        148130
#        159637
#        170727
#        180500
#        191342
#        203332
#        216367
#        227887
#        239342
#        251932
#        263290
#        275242
#        285745
#        296955
#        307162
#        319725
#        328810
#        339787
#
# Disc length: 4686 seconds
#
# Revision: 2
# Processed by: cddbd v1.5.2PL0 Copyright (c) Steve Scherf et al.
# Submitted via: ExactAudioCopyFreeDBPlugin 1.0
#
DISCID=bc124c1e
DTITLE=Jimmy Swan - Jimmy Swan_Honky Tonkin' In Mississippi
DYEAR=1993
DGENRE=Country
TTITLE0=I Had A Dream
TTITLE1=Juke Joint Mama
TTITLE2=I Love You Too Much
TTITLE3=Triflin' On Me
TTITLE4=The Last Letter
TTITLE5=The Little Church
TTITLE6=Mark Of Shame
TTITLE7=Losers Weepers
TTITLE8=One More Time
TTITLE9=Lonesome Daddy Blues
TTITLE10=Frost On My Roof
TTITLE11=Why Did You Change Your Mind
TTITLE12=Hey, Baby, Baby
TTITLE13=It's Your Turn To Cry
TTITLE14=Good And Lonesome
TTITLE15=Country Cattin'
TTITLE16=The Way That You're Living
TTITLE17=Lonesome Man
TTITLE18=I Love You Too Much
TTITLE19=Don't Conceal Your Wedding Ring
TTITLE20=No One Loves A Broken Heart
TTITLE21=It Takes A Lonesome Man
TTITLE22=Honky Tonkin' (In Mississippi)
TTITLE23=I Love You Too Much
TTITLE24=It Takes A Lonesome Man
TTITLE25=Rattlesnake Daddy
TTITLE26=Asleep In The Deep
TTITLE27=Walkin' My Dog
TTITLE28=Good And Lonesome
TTITLE29=Why Did You Change Your Mind
EXTD=
EXTT0=
EXTT1=
EXTT2=
EXTT3=
EXTT4=
EXTT5=
EXTT6=
EXTT7=
EXTT8=
EXTT9=
EXTT10=
EXTT11=
EXTT12=
EXTT13=
EXTT14=
EXTT15=
EXTT16=
EXTT17=
EXTT18=
EXTT19=
EXTT20=
EXTT21=
EXTT22=
EXTT23=
EXTT24=
EXTT25=
EXTT26=
EXTT27=
EXTT28=
EXTT29=
PLAYORDER=
